HIERARCHY
ROOT hip
{
  OFFSET 0 0 0
  CHANNELS 6 Xposition Yposition Zposition Zrotation Yrotation Xrotation
  JOINT abdomen
  {
    OFFSET 0 20.6881 -0.73152
    CHANNELS 3 Zrotation Xrotation Yrotation
    JOINT chest
    {
      OFFSET 0 11.7043 -0.48768
      CHANNELS 3 Zrotation Xrotation Yrotation
      JOINT neck
      {
        OFFSET 0 22.1894 -2.19456
        CHANNELS 3 Zrotation Xrotation Yrotation
        JOINT head
        {
          OFFSET -0.24384 7.07133 1.2192
          CHANNELS 3 Zrotation Xrotation Yrotation
          JOINT leftEye
          {
            OFFSET 4.14528 8.04674 8.04672
            CHANNELS 3 Zrotation Xrotation Yrotation
            End Site
            {
              OFFSET 1 0 0
            }
          }
          JOINT rightEye
          {
            OFFSET -3.6576 8.04674 8.04672
            CHANNELS 3 Zrotation Xrotation Yrotation
            End Site
            {
              OFFSET 1 0 0
            }
          }
        }
      }
      JOINT rCollar
      {
        OFFSET -2.68224 19.2634 -4.8768
        CHANNELS 3 Zrotation Xrotation Yrotation
        JOINT rShldr
        {
          OFFSET -8.77824 -1.95073 1.46304
          CHANNELS 3 Zrotation Xrotation Yrotation
          JOINT rForeArm
          {
            OFFSET -28.1742 -1.7115 0.48768
            CHANNELS 3 Zrotation Xrotation Yrotation
            JOINT rHand
            {
              OFFSET -22.5879 0.773209 7.07136
              CHANNELS 3 Zrotation Xrotation Yrotation
              JOINT rThumb1
              {
                OFFSET -1.2192 -0.487915 3.41376
                CHANNELS 3 Zrotation Xrotation Yrotation
                JOINT rThumb2
                {
                  OFFSET -3.37035 -0.52449 3.41376
                  CHANNELS 3 Zrotation Xrotation Yrotation
                  End Site
                  {
                    OFFSET -1.78271 -1.18214 1.43049
                  }
                }
              }
              JOINT rIndex1
              {
                OFFSET -7.75947 0.938293 5.60832
                CHANNELS 3 Zrotation Xrotation Yrotation
                JOINT rIndex2
                {
                  OFFSET -2.54057 -0.884171 1.56538
                  CHANNELS 3 Zrotation Xrotation Yrotation
                  End Site
                  {
                    OFFSET -1.62519 -0.234802 1.16502
                  }
                }
              }
              JOINT rMid1
              {
                OFFSET -8.24714 1.18213 3.41376
                CHANNELS 3 Zrotation Xrotation Yrotation
                JOINT rMid2
                {
                  OFFSET -3.10165 -0.590103 1.0647
                  CHANNELS 3 Zrotation Xrotation Yrotation
                  End Site
                  {
                    OFFSET -2.48547 -0.328903 0.83742
                  }
                }
              }
              JOINT rRing1
              {
                OFFSET -8.82822 0.546677 1.51678
                CHANNELS 3 Zrotation Xrotation Yrotation
                JOINT rRing2
                {
                  OFFSET -2.60934 -0.819778 -0.0198488
                  CHANNELS 3 Zrotation Xrotation Yrotation
                  End Site
                  {
                    OFFSET -2.33842 -0.294052 0.168128
                  }
                }
              }
              JOINT rPinky1
              {
                OFFSET -8.27202 -0.0477905 -0.4584
                CHANNELS 3 Zrotation Xrotation Yrotation
                JOINT rPinky2
                {
                  OFFSET -1.82734 -0.647385 -0.700984
                  CHANNELS 3 Zrotation Xrotation Yrotation
                  End Site
                  {
                    OFFSET -1.69225 -0.51767 -0.607171
                  }
                }
              }
            }
          }
        }
      }
      JOINT lCollar
      {
        OFFSET 2.68224 19.2634 -4.8768
        CHANNELS 3 Zrotation Xrotation Yrotation
        JOINT lShldr
        {
          OFFSET 8.77824 -1.95073 1.46304
          CHANNELS 3 Zrotation Xrotation Yrotation
          JOINT lForeArm
          {
            OFFSET 28.1742 -1.7115 0.48768
            CHANNELS 3 Zrotation Xrotation Yrotation
            JOINT lHand
            {
              OFFSET 22.5879 0.773209 7.07136
              CHANNELS 3 Zrotation Xrotation Yrotation
              JOINT lThumb1
              {
                OFFSET 1.2192 -0.487915 3.41376
                CHANNELS 3 Zrotation Xrotation Yrotation
                JOINT lThumb2
                {
                  OFFSET 3.37035 -0.52449 3.41376
                  CHANNELS 3 Zrotation Xrotation Yrotation
                  End Site
                  {
                    OFFSET 1.78271 -1.18214 1.43049
                  }
                }
              }
              JOINT lIndex1
              {
                OFFSET 7.75947 0.938293 5.60832
                CHANNELS 3 Zrotation Xrotation Yrotation
                JOINT lIndex2
                {
                  OFFSET 2.54057 -0.884171 1.56538
                  CHANNELS 3 Zrotation Xrotation Yrotation
                  End Site
                  {
                    OFFSET 1.62519 -0.234802 1.16502
                  }
                }
              }
              JOINT lMid1
              {
                OFFSET 8.24714 1.18213 3.41376
                CHANNELS 3 Zrotation Xrotation Yrotation
                JOINT lMid2
                {
                  OFFSET 3.10165 -0.590103 1.0647
                  CHANNELS 3 Zrotation Xrotation Yrotation
                  End Site
                  {
                    OFFSET 2.48547 -0.328903 0.83742
                  }
                }
              }
              JOINT lRing1
              {
                OFFSET 8.82822 0.546677 1.51678
                CHANNELS 3 Zrotation Xrotation Yrotation
                JOINT lRing2
                {
                  OFFSET 2.60934 -0.819778 -0.0198488
                  CHANNELS 3 Zrotation Xrotation Yrotation
                  End Site
                  {
                    OFFSET 2.33842 -0.294052 0.168128
                  }
                }
              }
              JOINT lPinky1
              {
                OFFSET 8.27202 -0.0477905 -0.4584
                CHANNELS 3 Zrotation Xrotation Yrotation
                JOINT lPinky2
                {
                  OFFSET 1.82734 -0.647385 -0.700984
                  CHANNELS 3 Zrotation Xrotation Yrotation
                  End Site
                  {
                    OFFSET 1.69225 -0.51767 -0.607171
                  }
                }
              }
            }
          }
        }
      }
    }
  }
  JOINT rButtock
  {
    OFFSET -8.77824 4.35084 1.2192
    CHANNELS 3 Zrotation Xrotation Yrotation
    JOINT rThigh
    {
      OFFSET 0 -1.70687 -2.19456
      CHANNELS 3 Zrotation Xrotation Yrotation
      JOINT rShin
      {
        OFFSET 0 -36.8199 0.73152
        CHANNELS 3 Zrotation Xrotation Yrotation
        JOINT rFoot
        {
          OFFSET 0.73152 -45.1104 -5.12064
          CHANNELS 3 Zrotation Xrotation Yrotation
          End Site
          {
            OFFSET -1.1221 -3.69964 12.103
          }
        }
      }
    }
  }
  JOINT lButtock
  {
    OFFSET 8.77824 4.35084 1.2192
    CHANNELS 3 Zrotation Xrotation Yrotation
    JOINT lThigh
    {
      OFFSET 0 -1.70687 -2.19456
      CHANNELS 3 Zrotation Xrotation Yrotation
      JOINT lShin
      {
        OFFSET 0 -36.8199 0.73152
        CHANNELS 3 Zrotation Xrotation Yrotation
        JOINT lFoot
        {
          OFFSET -0.73152 -45.1104 -5.12064
          CHANNELS 3 Zrotation Xrotation Yrotation
          End Site
          {
            OFFSET 1.1221 -3.69964 12.103
          }
        }
      }
    }
  }
}
MOTION
Frames:	4
Frame Time:	0.03333
0.7235351949930191 73.1016993522644 13.955790922045708 -3.584707736968994 -62.9218864440918 -9.25887393951416 -13.997784614562988 12.084471702575684 6.035331726074219 0.41326311230659485 -8.855751991271973 1.5318535566329956 0.8800674676895142 12.585169792175293 13.279443740844727 0.4257272779941559 -19.548526763916016 25.394317626953125 -0.19953855872154236 -0.1252426952123642 -0.14476992189884186 -0.04555344581604004 0.08294764906167984 0.009142668917775154 0.036865025758743286 -0.0020805930253118277 0.08519937098026276 96.96237182617188 55.703121185302734 -42.2789421081543 -28.13913917541504 -37.4831428527832 79.49069213867188 -4.9606242179870605 -49.6998291015625 -9.376775741577148 -0.0367845743894577 -0.03042140044271946 0.11613155901432037 -0.12373973429203033 -0.05953514203429222 -0.023282436653971672 0.11118345707654953 -0.0017344180960208178 0.017011769115924835 7.596508979797363 5.55869197845459 0.4334983825683594 -0.07302466779947281 -0.13376235961914062 0.04996592551469803 2.7091963291168213 1.0235503911972046 0.17905345559120178 -0.07341763377189636 0.011437495239078999 -0.06853307783603668 10.352593421936035 0.5777626633644104 0.03999888524413109 -0.1898680031299591 -0.03154176473617554 -0.1205899715423584 2.3266754150390625 -0.54681795835495 -0.1134968101978302 0.08197840303182602 0.08030596375465393 0.0360850915312767 -54.48440170288086 6.473344802856445 -17.8955135345459 25.416933059692383 -44.81535720825195 -95.07205200195312 3.817689895629883 -49.4068603515625 9.394665718078613 -0.017147788777947426 -0.04556719958782196 0.035887978971004486 0.033796392381191254 0.020514188334345818 0.06544069945812225 -0.013727817684412003 -0.06431644409894943 -0.0920456200838089 -7.613962173461914 5.602721214294434 -0.5033172965049744 -0.04024498537182808 0.01153432298451662 -0.078351229429245 -3.0808961391448975 1.0175203084945679 -0.0561886690557003 -0.11628325283527374 -0.005317002534866333 0.030773639678955078 -10.25450325012207 0.9143164157867432 -0.051728956401348114 -0.06259391456842422 -0.09576193243265152 0.006394186522811651 -2.275237560272217 -0.7837027907371521 0.3293208181858063 -0.04599689319729805 0.06405162811279297 0.034767232835292816 -29.824750900268555 -57.68213653564453 -22.936260223388672 -2.8378539085388184 66.91698455810547 2.78216552734375 2.4745543003082275 -8.574316024780273 11.202739715576172 0.030831703916192055 -0.006368180736899376 -0.254189133644104 7.43535852432251 -1.3720917701721191 6.141294956207275 1.4041461944580078 41.532588958740234 -3.0826752185821533 17.526975631713867 -24.87619400024414 31.537172317504883
0.766096543520689 72.1364974975586 14.224413875490427 -5.2433695793151855 -60.997474670410156 -11.206645965576172 -13.5140380859375 11.754252433776855 6.0999956130981445 0.19503165781497955 -9.033123016357422 1.5046011209487915 0.6353769898414612 12.63416576385498 12.593223571777344 1.42106032371521 -20.26508140563965 24.28441047668457 -0.1667052060365677 -0.1396210789680481 -0.12068592011928558 -0.05903942883014679 0.06520787626504898 0.037134990096092224 0.006257415283471346 -0.0005220501916483045 0.11171016842126846 95.00592803955078 57.1834831237793 -39.50295639038086 -27.91663932800293 -36.70077896118164 78.58634185791016 -4.614759922027588 -47.952369689941406 -8.402986526489258 -0.011622331105172634 -0.024076996371150017 0.10516931116580963 -0.06793604046106339 -0.058870505541563034 -0.027978111058473587 0.062255024909973145 0.009473432786762714 0.03694193437695503 7.579929828643799 5.521864891052246 0.40658286213874817 -0.09887789189815521 -0.10590314120054245 0.09311998635530472 2.744633436203003 0.9619772434234619 0.1872253119945526 -0.08106349408626556 -0.03745269030332565 -0.07066025584936142 10.361699104309082 0.5884969830513 0.006163415964692831 -0.1962660700082779 -0.028376299887895584 -0.12600111961364746 2.388761043548584 -0.5400158166885376 -0.15179280936717987 0.02856173925101757 0.0822463184595108 0.012519117444753647 -54.912837982177734 8.525922775268555 -15.184138298034668 24.8574275970459 -45.21147918701172 -96.19120025634766 4.129296779632568 -48.70330047607422 9.52025318145752 -0.0004568475706037134 -0.04866925999522209 0.08498839288949966 0.01113682147115469 0.018458016216754913 0.08867960423231125 -0.03545975685119629 -0.03437957912683487 -0.08806774765253067 -7.659052848815918 5.556039810180664 -0.49462398886680603 -0.013706882484257221 -0.0050358762964606285 -0.06404619663953781 -3.0556912422180176 0.9675299525260925 0.002352246316149831 -0.12853039801120758 -0.05167664587497711 0.009443933144211769 -10.239001274108887 0.8655625581741333 -0.0902116596698761 -0.027474286034703255 -0.07594417780637741 0.011794579215347767 -2.3070900440216064 -0.8004724979400635 0.26475653052330017 -0.051499851047992706 0.05255109816789627 0.022344764322042465 -30.030649185180664 -56.850223541259766 -23.67774772644043 -3.233154058456421 66.69480895996094 3.1148197650909424 2.4656753540039062 -8.9490385055542 10.46533203125 0.012518887408077717 -0.008462287485599518 -0.2210949808359146 7.299900054931641 -2.666198253631592 6.83781099319458 1.6501013040542603 41.605552673339844 -3.310182809829712 17.529409408569336 -24.946691513061523 31.51881217956543
0.8010809309780598 72.22799062728882 14.458322711288929 -6.27787971496582 -61.833717346191406 -9.71959400177002 -12.816417694091797 11.135807991027832 6.30143928527832 0.05089902505278587 -8.666443824768066 1.518876075744629 0.6542826294898987 12.998164176940918 12.883788108825684 0.5918042063713074 -20.20216941833496 24.824777603149414 -0.17816011607646942 -0.10088132321834564 -0.1246185302734375 -0.10269968956708908 0.017504382878541946 0.019964464008808136 0.015570812858641148 -0.007643359713256359 0.09348013252019882 102.17425537109375 51.267696380615234 -47.65795135498047 -27.8298397064209 -37.34705352783203 79.77965545654297 -5.94176721572876 -53.43719482421875 -10.41016960144043 0.014170516282320023 0.02959754876792431 0.11294367164373398 -0.06215736269950867 -0.019808830693364143 0.012703019194304943 0.05524560064077377 0.03255394101142883 -0.04694204032421112 7.598774433135986 5.5523576736450195 0.4386981427669525 -0.0549108162522316 -0.08756383508443832 0.086579330265522 2.735623598098755 0.9448158740997314 0.23536325991153717 -0.027765221893787384 0.03334211930632591 -0.04060199856758118 10.262940406799316 0.5386531949043274 0.048066217452287674 -0.12111058831214905 0.027197636663913727 -0.06826552003622055 2.374476194381714 -0.5868262052536011 -0.08912856131792068 0.03388112038373947 0.049023836851119995 -0.05531686916947365 -59.90104675292969 3.4780478477478027 -8.9465913772583 24.922374725341797 -45.9002799987793 -97.14962768554688 5.488592147827148 -53.82058334350586 10.989924430847168 0.00891692191362381 -0.07480116933584213 0.08304961770772934 -0.010970287956297398 0.04555880278348923 0.04472384601831436 -0.0559476800262928 -0.07840800285339355 -0.03918083757162094 -7.649587154388428 5.537328243255615 -0.47554484009742737 -0.02703510969877243 0.03154851868748665 -0.009879086166620255 -2.985050678253174 0.9535518288612366 0.01646426133811474 -0.071306973695755 -0.046283453702926636 0.02590302936732769 -10.255661964416504 0.8683232665061951 -0.10257633030414581 -0.05989670753479004 -0.060665957629680634 -0.015614904463291168 -2.346893548965454 -0.7543583512306213 0.2648954689502716 -0.035125479102134705 0.09044294059276581 0.010894388891756535 -28.943323135375977 -56.26728057861328 -24.30653190612793 -3.153742551803589 65.89322662353516 3.3699088096618652 2.9023263454437256 -8.129227638244629 12.478718757629395 0.0021915361285209656 -0.00986152421683073 -0.15870551764965057 7.345630168914795 -4.755849361419678 8.133232116699219 1.518763542175293 45.527313232421875 -3.2773778438568115 18.355785369873047 -25.285396575927734 32.14276885986328
0.8003219962120056 71.6316282749176 14.568628836423159 -4.66732931137085 -63.344322204589844 -4.587047576904297 -11.701400756835938 10.169008255004883 6.005303859710693 0.07143738120794296 -8.428112030029297 1.3716472387313843 0.7045358419418335 13.533347129821777 13.219001770019531 -0.09705794602632523 -19.9124813079834 25.1783504486084 -0.1832996904850006 -0.09638229757547379 -0.037956155836582184 -0.13274990022182465 -0.021627476438879967 0.013629383407533169 -0.012190205976366997 0.01252075843513012 0.058833420276641846 105.7690658569336 43.9093017578125 -51.283103942871094 -28.000226974487305 -38.68170928955078 81.61457061767578 -7.610961437225342 -58.02793502807617 -13.044900894165039 0.049478936940431595 0.06111599877476692 0.1517881602048874 -0.057078536599874496 -0.018218236044049263 0.029682353138923645 0.09710455685853958 0.028946539387106895 -0.04451967030763626 7.570188045501709 5.558716297149658 0.4625558853149414 -0.012482493184506893 -0.07033716887235641 0.07304271310567856 2.7580573558807373 0.9709303379058838 0.2305607944726944 -0.009564281441271305 0.06295856833457947 0.02191300317645073 10.23505973815918 0.6044563055038452 0.06473898142576218 -0.1776045709848404 0.034647200256586075 -0.036625269800424576 2.4227023124694824 -0.6132745146751404 -0.095600426197052 0.05239274352788925 -0.057325270026922226 -0.08682022243738174 -64.61760711669922 -1.8522166013717651 -7.450549125671387 25.62209701538086 -45.10603713989258 -94.64320373535156 5.875394344329834 -56.574195861816406 11.684663772583008 0.017467014491558075 -0.15006914734840393 0.11086225509643555 -0.044067710638046265 0.07885283976793289 0.038637351244688034 -0.017451880499720573 -0.07505816221237183 -0.004032236989587545 -7.664532661437988 5.568398475646973 -0.4952906668186188 -0.07359965145587921 0.0838208943605423 0.01586373709142208 -2.9644722938537598 1.0009247064590454 0.002354688011109829 -0.10169945657253265 -0.06908116489648819 0.07210700958967209 -10.240589141845703 0.839998185634613 -0.12879908084869385 -0.04788833484053612 -0.04708819091320038 0.005152021534740925 -2.3341567516326904 -0.7563697099685669 0.25496527552604675 -0.018404049798846245 0.06049590930342674 0.014252236112952232 -28.583066940307617 -55.77212905883789 -25.429594039916992 -3.098938465118408 66.98643493652344 3.334602117538452 3.0045337677001953 -8.058069229125977 14.10285758972168 0.03449654206633568 0.00767484400421381 -0.16159828007221222 8.679474830627441 -7.2600626945495605 9.723519325256348 1.2893662452697754 50.75559616088867 -3.135514259338379 18.655086517333984 -25.591976165771484 32.00008010864258
